PathFileType	4	(X/Y/Z)	s06c0401.trc
DataRate	CameraRate	NumFrames	NumMarkers	Units	OrigDataRate	OrigDataStartFrame	OrigNumFrames
200	200	7	48	mm	200	750	2000
Frame#	Time	racr			lacr			c7			jug			rlel			rdr			llel			ldr			s2			lic			ric			lasi			rasi			rpsi			lpsi			rgt			lgt			rth1			rth2			rth3			rth4			rlfc			rmfc			rsh1			rsh2			rsh3			rsh4			rlmal			rcal			rtoe			rmt5			lth1			lth2			lth4			lth3			llfc			lmfc			llmal			lcal			lmt5			lsh1			lsh2			lsh3			lsh4			ltoe			SBIKE			LBIKE			RBIKE			
		X1	Y1	Z1	X2	Y2	Z2	X3	Y3	Z3	X4	Y4	Z4	X5	Y5	Z5	X6	Y6	Z6	X7	Y7	Z7	X8	Y8	Z8	X9	Y9	Z9	X10	Y10	Z10	X11	Y11	Z11	X12	Y12	Z12	X13	Y13	Z13	X14	Y14	Z14	X15	Y15	Z15	X16	Y16	Z16	X17	Y17	Z17	X18	Y18	Z18	X19	Y19	Z19	X20	Y20	Z20	X21	Y21	Z21	X22	Y22	Z22	X23	Y23	Z23	X24	Y24	Z24	X25	Y25	Z25	X26	Y26	Z26	X27	Y27	Z27	X28	Y28	Z28	X29	Y29	Z29	X30	Y30	Z30	X31	Y31	Z31	X32	Y32	Z32	X33	Y33	Z33	X34	Y34	Z34	X35	Y35	Z35	X36	Y36	Z36	X37	Y37	Z37	X38	Y38	Z38	X39	Y39	Z39	X40	Y40	Z40	X41	Y41	Z41	X42	Y42	Z42	X43	Y43	Z43	X44	Y44	Z44	X45	Y45	Z45	X46	Y46	Z46	X47	Y47	Z47	X48	Y48	Z48	
750	3.7500	760.863464	1146.573665	-104.949735	730.740587	1115.009014	-431.350435	792.862659	1239.290089	-274.703754	722.444504	1065.824696	-261.974982	554.278899	1063.283555	66.193311	667.267619	931.415167	-49.926505	508.944325	1014.381389	-548.501938	650.735888	926.436992	-425.924005	222.836356	1232.852506	-220.707450	350.754534	1176.127525	-407.267429	357.433184	1134.687507	-71.117500	356.911075	1123.513011	-375.928824	374.609936	1090.231947	-115.215148	270.456503	1256.754249	-192.183526	262.840348	1262.547401	-252.277115	288.205455	1061.838759	-55.896698	327.890064	1151.466069	-425.702671	306.640363	934.478115	-46.291095	325.580686	846.855317	-54.451035	300.051840	764.363981	-61.647198	361.270712	847.674065	-67.077135	282.735168	657.733133	-72.167658	268.216600	633.930364	-185.582614	231.698684	546.741236	-43.367960	218.165502	462.407689	-60.646508	165.443116	392.387676	-62.453628	239.366178	455.613212	-94.970049	129.004027	321.719677	-68.711580	72.548106	343.825659	-114.772059	215.899579	105.881451	-100.253276	142.395322	177.408063	-39.104003	373.679980	1052.883607	-445.047717	446.471708	1009.917669	-437.898827	470.887383	1032.667337	-418.604002	492.306153	929.689937	-436.432165	537.936108	822.160473	-404.794944	534.377728	809.460037	-286.252462	249.603057	571.319022	-391.807703	166.007723	566.797127	-344.642538	338.126492	468.285079	-414.922750	461.839844	742.028540	-424.232010	410.677391	674.281027	-405.226048	331.800026	635.190374	-411.334586	428.981684	658.468963	-374.488916	421.024889	448.686231	-354.639900	-204.368549	869.011888	-222.356577	-50.532253	80.108325	-420.449399	-50.737496	80.923988	-23.095879	
751	3.7550	761.127416	1145.428922	-105.834250	729.228837	1113.911761	-431.678217	792.373970	1238.737739	-275.341088	721.191213	1065.267639	-262.358526	554.547317	1063.786299	66.234499	666.992842	931.253656	-49.614064	507.770400	1013.277289	-548.576312	649.812106	926.473544	-426.001659	223.133645	1235.456998	-221.689772	350.382207	1177.522891	-407.328562	354.720575	1137.457280	-71.591136	355.990970	1124.729122	-376.007154	372.314788	1092.963173	-115.484949	270.422521	1259.256114	-193.020529	263.988415	1264.830109	-253.165479	287.379056	1064.277932	-55.817359	327.265756	1152.911665	-425.876384	309.037453	936.258371	-46.517687	329.941625	848.648379	-56.045744	305.628870	765.789354	-63.976913	365.129745	850.374651	-68.471378	289.718400	658.322037	-74.045875	272.331876	635.438567	-186.964907	236.223851	549.143727	-44.501671	219.664817	465.512902	-62.144771	164.737078	397.133581	-62.788527	239.695857	458.182435	-97.217827	125.144071	327.859360	-68.785103	68.750443	351.590633	-114.352838	206.251300	110.206873	-100.789022	134.803246	183.347115	-39.364817	371.240253	1053.622923	-445.349840	444.420497	1009.446051	-437.934251	468.737240	1032.002836	-418.966050	488.004625	928.924979	-437.332098	532.706512	819.392022	-405.950640	528.901554	805.814877	-287.792862	251.110177	561.215740	-391.033505	168.697923	553.160994	-342.473176	343.865667	462.458303	-415.756554	458.133128	737.178793	-425.186186	409.281966	668.027700	-405.524903	331.871224	626.463965	-411.627349	427.833276	652.661898	-373.541887	428.359383	446.512719	-356.899403	-204.387455	869.017091	-222.591862	-50.548549	80.044640	-420.479228	-50.745243	80.937066	-23.122360	
752	3.7600	756.848950	1145.842008	-107.100656	727.784560	1112.980423	-431.921024	791.880053	1238.262872	-276.005204	720.210959	1064.832304	-262.326135	554.726164	1064.375480	66.312271	666.499401	931.242162	-49.142519	506.504672	1012.170593	-548.801861	648.891789	926.442498	-425.768826	223.170305	1237.558047	-222.355059	349.985088	1178.687368	-407.359413	352.158973	1139.354286	-72.475596	355.354066	1125.859810	-375.869964	369.684789	1094.710827	-116.244933	270.509431	1261.164409	-193.721762	264.027338	1266.957760	-254.139296	286.801320	1066.653196	-55.803570	326.280188	1153.631932	-426.036995	310.962256	937.516984	-48.043767	333.605886	850.667162	-57.923137	312.035204	767.335553	-64.930145	368.764018	853.089241	-70.549352	296.810612	658.948077	-75.844634	277.175832	637.102260	-187.397285	241.555049	551.680411	-45.791516	222.024504	468.638573	-63.890505	165.595451	401.692635	-63.415560	241.881978	461.064061	-99.510571	122.258805	334.269708	-68.796135	66.197286	359.205746	-114.571771	196.855768	114.641691	-101.252529	127.549075	189.538624	-39.634446	368.660203	1053.440362	-445.770486	441.923678	1008.087866	-438.292279	466.302753	1030.483162	-419.678207	483.238026	927.569148	-438.461962	527.042174	816.117691	-407.510765	523.232782	801.869155	-289.199551	253.251924	550.668465	-389.918344	171.498678	539.409536	-340.229716	349.553044	456.153157	-416.259640	454.349918	731.611867	-425.621222	407.794854	661.139701	-405.359062	332.133073	616.913814	-411.116533	427.114487	646.861778	-373.915654	435.281000	443.261028	-358.033803	-204.435897	868.957426	-222.778615	-50.570514	80.007332	-420.522919	-50.767734	80.926895	-23.143869	
753	3.7650	756.633069	1145.253803	-107.285013	726.474531	1111.973430	-432.184815	791.412351	1237.930339	-276.302399	719.318153	1064.568133	-262.126041	554.974194	1064.997191	66.774547	666.016341	931.136101	-48.543121	505.319923	1011.058909	-548.842299	648.005200	926.345534	-425.447304	223.223352	1239.258167	-222.894945	349.592407	1179.403722	-407.319523	351.128332	1141.427119	-72.242988	354.581814	1126.474903	-375.753449	368.973404	1096.611403	-115.706220	270.681096	1262.531115	-194.289159	264.011208	1268.581334	-254.857485	286.403906	1068.736552	-55.355580	324.816816	1153.893019	-426.086449	313.496705	938.926787	-49.001149	337.503168	852.450143	-59.962633	317.989599	768.703116	-66.734091	372.849959	855.812240	-72.244029	304.344791	659.638820	-77.447575	282.668814	638.715556	-188.289418	247.380963	554.334112	-47.293230	225.084710	471.726536	-66.084858	166.870546	406.648050	-64.013155	243.611568	464.608214	-101.452133	119.777246	340.932850	-68.950500	64.052867	367.512166	-114.593094	187.818411	119.535070	-101.562483	120.818719	196.223921	-39.886553	365.969816	1052.534883	-446.204638	439.027728	1005.925379	-438.879300	463.524104	1028.286097	-420.735755	478.860181	925.307700	-439.642932	521.247664	812.129414	-408.528257	517.704816	797.423082	-290.474544	255.734711	539.838399	-388.810567	174.549767	525.733191	-339.077123	355.495201	449.661052	-416.384753	450.371975	725.802618	-425.868204	406.152136	653.867553	-404.884923	332.031272	607.275777	-409.841903	426.275155	640.259691	-373.475332	441.747198	439.480130	-357.979012	-204.478642	868.874622	-222.912643	-50.571997	79.948017	-420.556575	-50.792654	80.861781	-23.199798	
754	3.7700	756.410738	1144.732113	-107.245743	725.383851	1111.017165	-432.370939	791.173216	1237.761451	-277.149020	718.406046	1064.586220	-261.650599	555.010037	1065.626263	66.991763	665.592586	931.164545	-47.809132	504.259430	1009.940326	-548.782253	647.218174	926.298185	-424.996121	223.051044	1240.031027	-223.270447	349.116129	1179.783818	-407.310662	350.811674	1143.356954	-70.701977	352.568491	1126.361660	-376.187669	369.711092	1098.517188	-113.691993	270.901470	1263.407849	-194.724624	263.994890	1269.702124	-255.383967	286.363894	1070.591850	-54.827726	325.277313	1154.385467	-427.812757	315.779156	939.943314	-50.251035	342.245121	854.245090	-60.800434	324.521268	770.099749	-67.441609	377.019065	858.540448	-73.913054	312.225478	660.453743	-78.763006	288.504653	640.604559	-189.417099	253.502338	556.946946	-48.739030	228.207697	475.246121	-67.541244	168.240495	411.834174	-64.708736	245.678378	467.745736	-103.389166	117.401578	347.956541	-69.124174	61.883096	377.641837	-113.267427	178.102458	123.838974	-102.858921	114.397016	203.305604	-40.029741	363.178277	1050.920491	-446.785695	435.794897	1003.073520	-439.541154	460.506029	1025.388043	-422.035978	477.309884	921.243238	-438.844919	515.190318	807.901335	-409.598376	512.428598	792.573406	-291.575782	258.508060	528.733054	-387.887282	177.293723	511.884357	-337.978229	360.685973	442.057597	-416.517967	446.276560	719.553239	-425.973706	404.519686	646.224438	-404.504964	332.250775	597.059746	-407.370931	425.381734	633.594351	-373.179023	447.515113	434.624746	-358.503318	-204.495958	868.794271	-222.880006	-50.584321	79.928777	-420.569757	-50.793155	80.821176	-23.209618	
755	3.7750	756.168990	1144.472651	-107.086132	724.704165	1109.964363	-432.649684	790.870862	1237.622258	-277.601939	718.725508	1066.512541	-256.887854	555.069252	1066.298201	67.270057	665.232290	931.163863	-47.094131	503.281946	1008.774758	-548.650142	646.498340	926.110877	-424.403579	222.842373	1241.072639	-223.532179	348.487629	1179.812527	-407.261143	349.881017	1144.849974	-70.562062	352.082457	1126.355659	-376.023869	369.131254	1099.872681	-113.251723	271.134479	1263.846349	-195.030123	262.237563	1270.810413	-254.648989	286.734829	1072.104484	-54.182651	323.778926	1153.541713	-428.049847	318.508760	941.211225	-51.597653	347.077694	856.208679	-61.815707	331.307728	771.434852	-68.380636	381.460188	861.124254	-75.386097	319.595417	661.965855	-80.014901	294.779173	642.852268	-190.734008	259.568469	559.385856	-50.342151	230.576341	478.734496	-69.396264	169.222936	417.386699	-65.258723	247.912789	470.780932	-105.104401	115.265225	355.294547	-69.183958	61.136432	385.326909	-114.286909	170.147692	129.965016	-102.778589	108.413793	211.013742	-40.006830	360.324721	1048.586899	-447.150125	432.385688	999.529584	-440.084732	457.343515	1021.777652	-423.377153	474.062116	917.599220	-439.611832	508.983351	803.328075	-410.038032	507.506040	787.340134	-292.812176	261.306955	517.672737	-387.237772	181.003900	497.877375	-336.767478	365.468426	433.639261	-416.763629	442.214371	712.873539	-426.146588	402.948853	638.252730	-404.276987	332.301414	586.898792	-405.649397	424.404397	626.372722	-372.860473	452.895079	428.678549	-359.352466	-204.446289	868.752727	-222.718201	-50.584003	79.897284	-420.520175	-50.782105	80.786111	-23.164476	
756	3.7800	755.523952	1144.343300	-107.034537	723.850366	1109.039863	-432.738481	790.619148	1237.554391	-278.122263	718.443683	1066.389689	-256.348179	555.127715	1067.079607	67.652143	664.927332	931.143314	-46.305204	502.418206	1007.587828	-548.381831	645.934705	925.956644	-423.728608	222.440386	1241.636470	-223.545157	347.794765	1179.339449	-407.254692	349.072192	1145.792872	-70.405582	351.481186	1125.843593	-375.903658	368.548953	1100.666899	-112.834731	271.344077	1263.898596	-195.207560	261.979982	1270.970304	-254.923196	287.405870	1073.262312	-53.366947	322.134605	1152.235023	-428.291390	321.904573	942.432699	-52.972685	352.139233	857.934680	-62.663088	338.246690	772.742601	-68.995114	386.182043	863.595265	-76.681787	327.343397	663.711202	-81.087391	301.498516	645.321445	-192.095084	265.344280	562.155859	-51.432609	234.327219	483.580179	-69.247309	170.093336	422.893533	-65.980786	250.226425	474.318476	-106.228098	113.227793	363.152762	-69.154387	59.591934	394.509854	-114.349764	162.668401	136.658879	-102.817080	102.845933	219.194544	-40.085176	357.392573	1045.617249	-447.213633	428.822541	995.467327	-440.516828	454.027352	1017.713018	-424.595970	468.804155	913.158255	-440.190378	502.580254	798.448050	-410.389159	503.200325	781.658100	-293.122521	263.771125	505.897000	-386.821565	184.682073	484.231316	-336.001271	370.369537	424.510321	-416.654471	438.231624	705.721044	-426.492648	401.371737	629.916959	-404.154245	333.589281	576.404374	-405.143704	423.372085	619.069761	-373.344080	458.009351	421.857122	-359.555251	-204.363926	868.715055	-222.482768	-50.578118	79.884495	-420.493758	-50.763182	80.739752	-23.133687	
